# xmcd CD database file
#
# Track frame offsets:
#	150
#	12831
#	29785
#	42096
#	56737
#	74891
#	93942
#	107072
#	126174
#	139119
#	158634
#
# Disc length: 2447 seconds
#
# Revision: 0
# Processed by: cddbd v1.5.2PL0 Copyright (c) Steve Scherf et al.
# Submitted via: CDex 1.70beta2
#
DISCID=9a098d0b
DTITLE=Eli Barsi - Shades of the West
DYEAR=2005
DGENRE=Country
TTITLE0=Help Wanted
TTITLE1=Shades of the West (Rainbows)
TTITLE2=Every Cowboy Knows
TTITLE3=Silver on the Sage
TTITLE4=Triple C Medley
TTITLE5=On Last Trail
TTITLE6=Just Call Him Cowboy
TTITLE7=Lonesome Canyon
TTITLE8=Makers Brand
TTITLE9=40 Shades of Green
TTITLE10=Eli's Song
EXTD=YEAR: 2005
EXTT0=
EXTT1=
EXTT2=
EXTT3=
EXTT4=
EXTT5=
EXTT6=
EXTT7=
EXTT8=
EXTT9=
EXTT10=
PLAYORDER=
